<svg width="258" height="30" viewBox="0 0 258 30" fill="none" xmlns="http://www.w3.org/2000/svg">
<path d="M71.9174 18.9909C72.2173 18.9909 72.4605 18.7444 72.4605 18.4404V10.9553C72.4605 10.6512 72.2173 10.4048 71.9174 10.4048H71.3308C71.0308 10.4048 70.7876 10.6512 70.7876 10.9553V18.4404C70.7876 18.7444 71.0308 18.9909 71.3308 18.9909H71.9174Z" fill="black"/>
<path d="M84.7112 18.9909C85.0112 18.9909 85.2544 18.7444 85.2544 18.4404V10.9553C85.2544 10.6512 85.0112 10.4048 84.7112 10.4048H84.1485C83.8485 10.4048 83.6054 10.6512 83.6054 10.9553V16.0844L80.24 10.6622C80.1406 10.502 79.967 10.4048 79.7802 10.4048H78.5681C78.2681 10.4048 78.025 10.6512 78.025 10.9553V18.4404C78.025 18.7444 78.2681 18.9909 78.5681 18.9909H79.1308C79.4308 18.9909 79.674 18.7444 79.674 18.4404V12.8995L83.3615 18.7372C83.4613 18.8952 83.6337 18.9909 83.8189 18.9909H84.7112Z" fill="black"/>
<path d="M96.4992 11.9912C96.7992 11.9912 97.0424 11.7448 97.0424 11.4408V10.9553C97.0424 10.6512 96.7992 10.4048 96.4992 10.4048H90.5712C90.2712 10.4048 90.028 10.6512 90.028 10.9553V11.4408C90.028 11.7448 90.2712 11.9912 90.5712 11.9912H92.7047V18.4404C92.7047 18.7444 92.9479 18.9909 93.2479 18.9909H93.8225C94.1225 18.9909 94.3657 18.7444 94.3657 18.4404V11.9912H96.4992Z" fill="black"/>
<path d="M106.574 18.9909C106.874 18.9909 107.117 18.7444 107.117 18.4404V17.967C107.117 17.663 106.874 17.4165 106.574 17.4165H103.461V15.4305H106.228C106.528 15.4305 106.771 15.184 106.771 14.88V14.4914C106.771 14.1874 106.528 13.9409 106.228 13.9409H103.461V11.9791H106.574C106.874 11.9791 107.117 11.7327 107.117 11.4286V10.9553C107.117 10.6512 106.874 10.4048 106.574 10.4048H102.355C102.055 10.4048 101.812 10.6512 101.812 10.9553V18.4404C101.812 18.7444 102.055 18.9909 102.355 18.9909H106.574Z" fill="black"/>
<path d="M116.348 18.6902C116.441 18.8747 116.628 18.9909 116.832 18.9909H117.441C117.85 18.9909 118.112 18.5514 117.922 18.1849L116.523 15.4789C117.634 15.152 118.327 14.2437 118.327 13.0448C118.327 11.5553 117.276 10.4048 115.627 10.4048H112.86C112.56 10.4048 112.317 10.6512 112.317 10.9553V18.4404C112.317 18.7444 112.56 18.9909 112.86 18.9909H113.435C113.734 18.9909 113.978 18.7444 113.978 18.4404V15.6848H114.838L116.348 18.6902ZM113.978 14.2437V11.858H115.316C116.152 11.858 116.642 12.3303 116.642 13.0569C116.642 13.7593 116.152 14.2437 115.316 14.2437H113.978Z" fill="black"/>
<path d="M130.115 18.9909C130.415 18.9909 130.658 18.7444 130.658 18.4404V10.9553C130.658 10.6512 130.415 10.4048 130.115 10.4048H129.552C129.252 10.4048 129.009 10.6512 129.009 10.9553V16.0844L125.643 10.6622C125.544 10.502 125.37 10.4048 125.184 10.4048H123.971C123.671 10.4048 123.428 10.6512 123.428 10.9553V18.4404C123.428 18.7444 123.671 18.9909 123.971 18.9909H124.534C124.834 18.9909 125.077 18.7444 125.077 18.4404V12.8995L128.765 18.7372C128.865 18.8952 129.037 18.9909 129.222 18.9909H130.115Z" fill="black"/>
<path d="M140.994 18.9909C141.294 18.9909 141.538 18.7444 141.538 18.4404V17.967C141.538 17.663 141.294 17.4165 140.994 17.4165H137.881V15.4305H140.648C140.948 15.4305 141.191 15.184 141.191 14.88V14.4914C141.191 14.1874 140.948 13.9409 140.648 13.9409H137.881V11.9791H140.994C141.294 11.9791 141.538 11.7327 141.538 11.4286V10.9553C141.538 10.6512 141.294 10.4048 140.994 10.4048H136.775C136.475 10.4048 136.232 10.6512 136.232 10.9553V18.4404C136.232 18.7444 136.475 18.9909 136.775 18.9909H140.994Z" fill="black"/>
<path d="M152.407 11.9912C152.707 11.9912 152.95 11.7448 152.95 11.4408V10.9553C152.95 10.6512 152.707 10.4048 152.407 10.4048H146.479C146.179 10.4048 145.936 10.6512 145.936 10.9553V11.4408C145.936 11.7448 146.179 11.9912 146.479 11.9912H148.613V18.4404C148.613 18.7444 148.856 18.9909 149.156 18.9909H149.731C150.031 18.9909 150.274 18.7444 150.274 18.4404V11.9912H152.407Z" fill="black"/>
<path d="M167.65 19.1725C169.735 19.1725 170.929 17.9434 171.409 16.7507C171.518 16.4793 171.352 16.1874 171.075 16.1026L170.554 15.9431C170.265 15.8543 169.964 16.0271 169.818 16.2964C169.471 16.941 168.791 17.5376 167.65 17.5376C166.287 17.5376 165.021 16.5325 165.021 14.7039C165.021 12.7542 166.359 11.8338 167.626 11.8338C168.772 11.8338 169.424 12.3862 169.752 13.0199C169.897 13.3008 170.208 13.485 170.506 13.3896L171.025 13.2239C171.297 13.1367 171.461 12.8482 171.355 12.5789C170.876 11.3554 169.693 10.2231 167.626 10.2231C165.355 10.2231 163.312 11.967 163.312 14.7039C163.312 17.4408 165.284 19.1725 167.65 19.1725Z" fill="black"/>
<path d="M177.638 14.6918C177.638 12.7542 178.976 11.8338 180.278 11.8338C181.593 11.8338 182.931 12.7542 182.931 14.6918C182.931 16.6294 181.593 17.5498 180.278 17.5498C178.976 17.5498 177.638 16.6294 177.638 14.6918ZM175.929 14.7039C175.929 17.465 177.984 19.1725 180.278 19.1725C182.585 19.1725 184.64 17.465 184.64 14.7039C184.64 11.9307 182.585 10.2231 180.278 10.2231C177.984 10.2231 175.929 11.9307 175.929 14.7039Z" fill="black"/>
<path d="M198.61 18.9909C198.91 18.9909 199.153 18.7444 199.153 18.4404V10.9553C199.153 10.6512 198.91 10.4048 198.61 10.4048H197.272C197.051 10.4048 196.852 10.5405 196.769 10.7481L194.421 16.6052L192.015 10.7438C191.931 10.5385 191.733 10.4048 191.514 10.4048H190.244C189.944 10.4048 189.701 10.6512 189.701 10.9553V18.4404C189.701 18.7444 189.944 18.9909 190.244 18.9909H190.735C191.035 18.9909 191.279 18.7444 191.279 18.4404V13.0206L193.577 18.6509C193.661 18.8567 193.86 18.9909 194.079 18.9909H194.726C194.947 18.9909 195.145 18.856 195.229 18.6494L197.528 12.9721V18.4404C197.528 18.7444 197.771 18.9909 198.071 18.9909H198.61Z" fill="black"/>
<path d="M206.383 14.3164V11.858H207.686C208.51 11.858 209.012 12.3303 209.012 13.0932C209.012 13.832 208.51 14.3164 207.686 14.3164H206.383ZM207.889 15.7575C209.562 15.7575 210.673 14.6433 210.673 13.0811C210.673 11.531 209.562 10.4048 207.889 10.4048H205.265C204.965 10.4048 204.722 10.6512 204.722 10.9553V18.4404C204.722 18.7444 204.965 18.9909 205.265 18.9909H205.828C206.128 18.9909 206.371 18.7444 206.371 18.4404V15.7575H207.889Z" fill="black"/>
<path d="M218.72 19.1846C220.537 19.1846 221.983 18.0584 221.983 15.9512V10.9553C221.983 10.6512 221.74 10.4048 221.44 10.4048H220.877C220.577 10.4048 220.334 10.6512 220.334 10.9553V15.8301C220.334 16.9564 219.724 17.5498 218.72 17.5498C217.741 17.5498 217.119 16.9564 217.119 15.8301V10.9553C217.119 10.6512 216.876 10.4048 216.576 10.4048H216.013C215.713 10.4048 215.47 10.6512 215.47 10.9553V15.9512C215.47 18.0584 216.916 19.1846 218.72 19.1846Z" fill="black"/>
<path d="M233.153 11.9912C233.453 11.9912 233.696 11.7448 233.696 11.4408V10.9553C233.696 10.6512 233.453 10.4048 233.153 10.4048H227.225C226.925 10.4048 226.681 10.6512 226.681 10.9553V11.4408C226.681 11.7448 226.925 11.9912 227.225 11.9912H229.358V18.4404C229.358 18.7444 229.601 18.9909 229.901 18.9909H230.476C230.776 18.9909 231.019 18.7444 231.019 18.4404V11.9912H233.153Z" fill="black"/>
<path d="M243.228 18.9909C243.528 18.9909 243.771 18.7444 243.771 18.4404V17.967C243.771 17.663 243.528 17.4165 243.228 17.4165H240.114V15.4305H242.881C243.181 15.4305 243.424 15.184 243.424 14.88V14.4914C243.424 14.1874 243.181 13.9409 242.881 13.9409H240.114V11.9791H243.228C243.528 11.9791 243.771 11.7327 243.771 11.4286V10.9553C243.771 10.6512 243.528 10.4048 243.228 10.4048H239.008C238.708 10.4048 238.465 10.6512 238.465 10.9553V18.4404C238.465 18.7444 238.708 18.9909 239.008 18.9909H243.228Z" fill="black"/>
<path d="M253.001 18.6902C253.094 18.8747 253.281 18.9909 253.485 18.9909H254.095C254.503 18.9909 254.765 18.5514 254.576 18.1849L253.176 15.4789C254.288 15.152 254.981 14.2437 254.981 13.0448C254.981 11.5553 253.929 10.4048 252.28 10.4048H248.97V18.4404C248.97 18.7444 249.213 18.9909 249.513 18.9909H250.088C250.388 18.9909 250.631 18.7444 250.631 18.4404V15.6848H251.491L253.001 18.6902ZM250.631 14.2437V11.858H251.969C252.806 11.858 253.296 12.3303 253.296 13.0569C253.296 13.7593 252.806 14.2437 251.969 14.2437H250.631Z" fill="black"/>
<path d="M47.3724 0C43.8746 0 40.0618 1.81644 36.0317 5.39429C34.1198 7.08963 32.4687 8.90607 31.2303 10.3592C31.2303 10.3592 31.2303 10.3592 31.2412 10.3702V10.3592C31.2412 10.3592 33.1965 12.5169 35.3582 14.8288C36.5205 13.4307 38.1934 11.5262 40.1161 9.80879C43.7008 6.62726 46.0363 5.95573 47.3724 5.95573C52.4018 5.95573 56.4862 9.99594 56.4862 14.9609C56.4862 19.8928 52.391 23.933 47.3724 23.966C47.1443 23.966 46.851 23.933 46.4816 23.856C47.9481 24.4945 49.5232 24.9568 51.0223 24.9568C60.2339 24.9568 62.0371 18.869 62.1566 18.4286C62.4281 17.3168 62.5693 16.1498 62.5693 14.9499C62.5693 6.71533 55.7475 0 47.3724 0Z" fill="url(#paint0_linear_112_13)"/>
<path d="M15.197 29.9438C18.6948 29.9438 22.5076 28.1273 26.5377 24.5495C28.4495 22.8542 30.1006 21.0377 31.339 19.5846C31.339 19.5846 31.339 19.5846 31.3281 19.5735V19.5846C31.3281 19.5846 29.3728 17.4268 27.2111 15.115C26.0488 16.5131 24.376 18.4176 22.4533 20.135C18.8686 23.3165 16.5331 23.9881 15.197 23.9881C10.1675 23.977 6.08313 19.9368 6.08313 14.9719C6.08313 10.04 10.1784 5.99977 15.197 5.96674C15.4251 5.96674 15.7184 5.99977 16.0877 6.07683C14.6212 5.43832 13.0461 4.97595 11.5471 4.97595C2.33549 4.97595 0.543137 11.0638 0.412784 11.4931C0.141216 12.616 0 13.7719 0 14.9719C0 23.2285 6.8218 29.9438 15.197 29.9438Z" fill="url(#paint1_linear_112_13)"/>
<path d="M51.0006 24.8247C46.2862 24.7036 41.3871 20.9386 40.3877 20.0029C37.8024 17.581 31.8387 11.0308 31.3716 10.5134C27.0048 5.54841 21.0846 0 15.197 0H15.1862H15.1753C8.02762 0.0330262 2.02053 4.94293 0.412842 11.4931C0.532332 11.0638 2.88954 4.85486 11.5363 5.07503C16.2507 5.19613 21.1715 9.01616 22.1818 9.95191C24.7671 12.3738 30.7307 18.924 31.1978 19.4414C35.5646 24.3954 41.4848 29.9438 47.3724 29.9438H47.3833H47.3942C54.5418 29.9108 60.5598 25.0009 62.1566 18.4507C62.0263 18.88 59.6582 25.0339 51.0006 24.8247Z" fill="#29ABE2"/>
<defs>
<linearGradient id="paint0_linear_112_13" x1="39.4615" y1="1.97437" x2="60.4092" y2="23.3786" gradientUnits="userSpaceOnUse">
<stop offset="0.21" stop-color="#F15A24"/>
<stop offset="0.6841" stop-color="#FBB03B"/>
</linearGradient>
<linearGradient id="paint1_linear_112_13" x1="23.1078" y1="27.9694" x2="2.16012" y2="6.56516" gradientUnits="userSpaceOnUse">
<stop offset="0.21" stop-color="#ED1E79"/>
<stop offset="0.8929" stop-color="#522785"/>
</linearGradient>
</defs>
</svg>
