<svg width="258" height="30" viewBox="0 0 258 30" fill="none" xmlns="http://www.w3.org/2000/svg">
<path d="M71.624 18.9909C72.086 18.9909 72.4605 18.6164 72.4605 18.1544V11.2413C72.4605 10.7793 72.086 10.4048 71.624 10.4048C71.1621 10.4048 70.7876 10.7793 70.7876 11.2413V18.1544C70.7876 18.6164 71.1621 18.9909 71.624 18.9909Z" fill="black"/>
<path d="M84.1373 18.9909C84.7542 18.9909 85.2544 18.4907 85.2544 17.8738V11.2293C85.2544 10.7739 84.8852 10.4048 84.4299 10.4048C83.9745 10.4048 83.6053 10.7739 83.6053 11.2293V16.0844L80.4677 11.029C80.2268 10.6409 79.8024 10.4048 79.3456 10.4048C78.6162 10.4048 78.0249 10.9961 78.0249 11.7254V18.1663C78.0249 18.6217 78.3941 18.9909 78.8494 18.9909C79.3048 18.9909 79.674 18.6217 79.674 18.1663V12.8995L83.1929 18.4704C83.3976 18.7944 83.7541 18.9909 84.1373 18.9909Z" fill="black"/>
<path d="M96.2491 11.9912C96.6872 11.9912 97.0423 11.6361 97.0423 11.198C97.0423 10.7599 96.6872 10.4048 96.2491 10.4048H90.8212C90.3831 10.4048 90.028 10.7599 90.028 11.198C90.028 11.6361 90.3831 11.9912 90.8212 11.9912H92.7047V18.1604C92.7047 18.619 93.0765 18.9909 93.5352 18.9909C93.9938 18.9909 94.3657 18.619 94.3657 18.1604V11.9912H96.2491Z" fill="black"/>
<path d="M106.33 18.9909C106.765 18.9909 107.117 18.6384 107.117 18.2037C107.117 17.769 106.765 17.4165 106.33 17.4165H103.461V15.4305H106.026C106.437 15.4305 106.771 15.097 106.771 14.6857C106.771 14.2744 106.437 13.9409 106.026 13.9409H103.461V11.9791H106.33C106.765 11.9791 107.117 11.6267 107.117 11.192C107.117 10.7572 106.765 10.4048 106.33 10.4048H103.812C102.707 10.4048 101.812 11.3002 101.812 12.4048V16.9909C101.812 18.0954 102.707 18.9909 103.812 18.9909H106.33Z" fill="black"/>
<path d="M116.274 18.5421C116.412 18.8172 116.693 18.9909 117.001 18.9909C117.611 18.9909 118.005 18.3444 117.725 17.8024L116.523 15.4789C117.634 15.152 118.327 14.2437 118.327 13.0448C118.327 11.5553 117.276 10.4048 115.627 10.4048H114.317C113.212 10.4048 112.317 11.3002 112.317 12.4048V18.1604C112.317 18.619 112.688 18.9909 113.147 18.9909C113.606 18.9909 113.978 18.619 113.978 18.1604V15.6848H114.838L116.274 18.5421ZM113.978 14.2437V11.858H115.316C116.152 11.858 116.642 12.3303 116.642 13.0569C116.642 13.7593 116.152 14.2437 115.316 14.2437H113.978Z" fill="black"/>
<path d="M129.541 18.9909C130.158 18.9909 130.658 18.4907 130.658 17.8738V11.2293C130.658 10.7739 130.289 10.4048 129.833 10.4048C129.378 10.4048 129.009 10.7739 129.009 11.2293V16.0844L125.871 11.029C125.63 10.6409 125.206 10.4048 124.749 10.4048C124.02 10.4048 123.428 10.9961 123.428 11.7254V18.1663C123.428 18.6217 123.797 18.9909 124.253 18.9909C124.708 18.9909 125.077 18.6217 125.077 18.1663V12.8995L128.596 18.4704C128.801 18.7944 129.157 18.9909 129.541 18.9909Z" fill="black"/>
<path d="M140.75 18.9909C141.185 18.9909 141.538 18.6384 141.538 18.2037C141.538 17.769 141.185 17.4165 140.75 17.4165H137.881V15.4305H140.446C140.858 15.4305 141.191 15.097 141.191 14.6857C141.191 14.2744 140.858 13.9409 140.446 13.9409H137.881V11.9791H140.75C141.185 11.9791 141.538 11.6267 141.538 11.192C141.538 10.7572 141.185 10.4048 140.75 10.4048H138.232C137.127 10.4048 136.232 11.3002 136.232 12.4048V16.9909C136.232 18.0954 137.127 18.9909 138.232 18.9909H140.75Z" fill="black"/>
<path d="M152.157 11.9912C152.595 11.9912 152.95 11.6361 152.95 11.198C152.95 10.7599 152.595 10.4048 152.157 10.4048H146.729C146.291 10.4048 145.936 10.7599 145.936 11.198C145.936 11.6361 146.291 11.9912 146.729 11.9912H148.613V18.1604C148.613 18.619 148.985 18.9909 149.443 18.9909C149.902 18.9909 150.274 18.619 150.274 18.1604V11.9912H152.157Z" fill="black"/>
<path d="M167.65 19.1725C169.6 19.1725 170.771 18.0966 171.307 16.9813C171.495 16.5893 171.244 16.1544 170.828 16.027C170.389 15.8924 169.934 16.158 169.672 16.5358C169.293 17.0814 168.648 17.5376 167.65 17.5376C166.287 17.5376 165.021 16.5325 165.021 14.7039C165.021 12.7542 166.359 11.8338 167.626 11.8338C168.619 11.8338 169.242 12.2489 169.603 12.7723C169.872 13.1608 170.337 13.4436 170.787 13.2998C171.194 13.1697 171.44 12.742 171.259 12.3551C170.727 11.2208 169.566 10.2231 167.626 10.2231C165.355 10.2231 163.312 11.967 163.312 14.7039C163.312 17.4408 165.284 19.1725 167.65 19.1725Z" fill="black"/>
<path d="M177.638 14.6918C177.638 12.7542 178.976 11.8338 180.278 11.8338C181.593 11.8338 182.931 12.7542 182.931 14.6918C182.931 16.6294 181.593 17.5498 180.278 17.5498C178.976 17.5498 177.638 16.6294 177.638 14.6918ZM175.929 14.7039C175.929 17.465 177.984 19.1725 180.278 19.1725C182.585 19.1725 184.64 17.465 184.64 14.7039C184.64 11.9307 182.585 10.2231 180.278 10.2231C177.984 10.2231 175.929 11.9307 175.929 14.7039Z" fill="black"/>
<path d="M198.341 18.9909C198.789 18.9909 199.153 18.6271 199.153 18.1783V11.7448C199.153 11.0047 198.553 10.4048 197.813 10.4048C197.266 10.4048 196.773 10.738 196.569 11.2462L194.421 16.6052L192.207 11.2123C192.007 10.7238 191.531 10.4048 191.003 10.4048C190.284 10.4048 189.701 10.9877 189.701 11.7067V18.2022C189.701 18.6378 190.054 18.9909 190.49 18.9909C190.925 18.9909 191.279 18.6378 191.279 18.2022V13.0206L193.457 18.3557C193.614 18.7398 193.987 18.9909 194.402 18.9909C194.818 18.9909 195.193 18.7386 195.349 18.353L197.528 12.9721V18.1783C197.528 18.6271 197.892 18.9909 198.341 18.9909Z" fill="black"/>
<path d="M206.383 14.3164V11.858H207.686C208.51 11.858 209.012 12.3303 209.012 13.0932C209.012 13.832 208.51 14.3164 207.686 14.3164H206.383ZM207.889 15.7575C209.562 15.7575 210.673 14.6433 210.673 13.0811C210.673 11.531 209.562 10.4048 207.889 10.4048H206.722C205.617 10.4048 204.722 11.3002 204.722 12.4048V18.1663C204.722 18.6217 205.091 18.9909 205.547 18.9909C206.002 18.9909 206.371 18.6217 206.371 18.1663V15.7575H207.889Z" fill="black"/>
<path d="M218.72 19.1846C220.537 19.1846 221.983 18.0584 221.983 15.9512V11.2293C221.983 10.7739 221.614 10.4048 221.158 10.4048C220.703 10.4048 220.334 10.7739 220.334 11.2293V15.8301C220.334 16.9564 219.724 17.5498 218.72 17.5498C217.741 17.5498 217.119 16.9564 217.119 15.8301V11.2293C217.119 10.7739 216.75 10.4048 216.295 10.4048C215.839 10.4048 215.47 10.7739 215.47 11.2293V15.9512C215.47 18.0584 216.916 19.1846 218.72 19.1846Z" fill="black"/>
<path d="M232.903 11.9912C233.341 11.9912 233.696 11.6361 233.696 11.198C233.696 10.7599 233.341 10.4048 232.903 10.4048H227.475C227.037 10.4048 226.681 10.7599 226.681 11.198C226.681 11.6361 227.037 11.9912 227.475 11.9912H229.358V18.1604C229.358 18.619 229.73 18.9909 230.189 18.9909C230.647 18.9909 231.019 18.619 231.019 18.1604V11.9912H232.903Z" fill="black"/>
<path d="M242.984 18.9909C243.418 18.9909 243.771 18.6384 243.771 18.2037C243.771 17.769 243.418 17.4165 242.984 17.4165H240.114V15.4305H242.68C243.091 15.4305 243.424 15.097 243.424 14.6857C243.424 14.2744 243.091 13.9409 242.68 13.9409H240.114V11.9791H242.984C243.418 11.9791 243.771 11.6267 243.771 11.192C243.771 10.7572 243.418 10.4048 242.984 10.4048H240.465C239.361 10.4048 238.465 11.3002 238.465 12.4048V16.9909C238.465 18.0954 239.361 18.9909 240.465 18.9909H242.984Z" fill="black"/>
<path d="M252.927 18.5421C253.065 18.8172 253.347 18.9909 253.655 18.9909C254.265 18.9909 254.658 18.3444 254.378 17.8024L253.176 15.4789C254.288 15.152 254.981 14.2437 254.981 13.0448C254.981 11.5553 253.929 10.4048 252.28 10.4048H248.97V18.1604C248.97 18.619 249.342 18.9909 249.801 18.9909C250.259 18.9909 250.631 18.619 250.631 18.1604V15.6848H251.491L252.927 18.5421ZM250.631 14.2437V11.858H251.969C252.806 11.858 253.296 12.3303 253.296 13.0569C253.296 13.7593 252.806 14.2437 251.969 14.2437H250.631Z" fill="black"/>
<path d="M47.3724 0C43.8746 0 40.0618 1.81644 36.0317 5.39429C34.1199 7.08963 32.4687 8.90607 31.2304 10.3592C31.2304 10.3592 31.2304 10.3592 31.2412 10.3702V10.3592C31.2412 10.3592 33.1965 12.5169 35.3582 14.8288C36.5205 13.4307 38.1934 11.5262 40.1161 9.80879C43.7008 6.62726 46.0363 5.95573 47.3724 5.95573C52.4018 5.95573 56.4862 9.99594 56.4862 14.9609C56.4862 19.8928 52.391 23.933 47.3724 23.966C47.1443 23.966 46.851 23.933 46.4817 23.856C47.9481 24.4945 49.5232 24.9568 51.0223 24.9568C60.2339 24.9568 62.0371 18.869 62.1566 18.4286C62.4282 17.3168 62.5694 16.1498 62.5694 14.9499C62.5694 6.71533 55.7476 0 47.3724 0Z" fill="url(#paint0_linear_4_3)"/>
<path d="M15.197 29.9438C18.6948 29.9438 22.5076 28.1273 26.5377 24.5495C28.4495 22.8542 30.1006 21.0377 31.339 19.5846C31.339 19.5846 31.339 19.5846 31.3281 19.5735V19.5846C31.3281 19.5846 29.3728 17.4268 27.2111 15.115C26.0488 16.5131 24.376 18.4176 22.4533 20.135C18.8686 23.3165 16.5331 23.9881 15.197 23.9881C10.1675 23.977 6.08313 19.9368 6.08313 14.9719C6.08313 10.04 10.1784 5.99977 15.197 5.96674C15.4251 5.96674 15.7184 5.99977 16.0877 6.07683C14.6212 5.43832 13.0461 4.97595 11.5471 4.97595C2.33549 4.97595 0.543137 11.0638 0.412784 11.4931C0.141216 12.616 0 13.7719 0 14.9719C0 23.2285 6.82179 29.9438 15.197 29.9438Z" fill="url(#paint1_linear_4_3)"/>
<path d="M51.0006 24.8247C46.2861 24.7036 41.387 20.9386 40.3877 20.0029C37.8023 17.581 31.8387 11.0308 31.3716 10.5134C27.0048 5.54841 21.0846 0 15.197 0H15.1861H15.1753C8.02759 0.0330262 2.0205 4.94293 0.412811 11.4931C0.532301 11.0638 2.88951 4.85486 11.5363 5.07503C16.2507 5.19613 21.1715 9.01616 22.1817 9.95191C24.7671 12.3738 30.7307 18.924 31.1978 19.4414C35.5646 24.3954 41.4848 29.9438 47.3724 29.9438H47.3833H47.3941C54.5418 29.9108 60.5598 25.0009 62.1566 18.4507C62.0262 18.88 59.6582 25.0339 51.0006 24.8247Z" fill="#29ABE2"/>
<defs>
<linearGradient id="paint0_linear_4_3" x1="39.4615" y1="1.97437" x2="60.4092" y2="23.3786" gradientUnits="userSpaceOnUse">
<stop offset="0.21" stop-color="#F15A24"/>
<stop offset="0.6841" stop-color="#FBB03B"/>
</linearGradient>
<linearGradient id="paint1_linear_4_3" x1="23.1078" y1="27.9694" x2="2.16012" y2="6.56516" gradientUnits="userSpaceOnUse">
<stop offset="0.21" stop-color="#ED1E79"/>
<stop offset="0.8929" stop-color="#522785"/>
</linearGradient>
</defs>
</svg>
